# xmcd
#
# Track frame offsets:
#	150
#	3113
#	37934
#	55646
#	71679
#	91336
#	96626
#	115080
#	127717
#	146428
#	167098
#	174908
#	235976
#
# Disc length: 3248 seconds
#
# Revision: 1
# Processed by: cddbd v1.4PL0 Copyright (c) Steve Scherf et al.
# Submitted via: audiograbber 1.81.01
#
DISCID=9b0cae0d
DTITLE=Stevie Ray Vaughan - Last Call
DYEAR=2002
DGENRE=Blues
TTITLE0=Speaks
TTITLE1=Tin Pan Alley
TTITLE2=Testify
TTITLE3=Mary Had a Little Lamb
TTITLE4=Wham
TTITLE5=Speaks
TTITLE6=Hide Away
TTITLE7=Look At Little Sister
TTITLE8=Give Me Back My Wig
TTITLE9=Come On
TTITLE10=Speaks
TTITLE11=Little Wing/Third Stone From the Sun
TTITLE12=Slip Slidin' Slim
EXTD=Bonus tracks from the remastered series
EXTT0=
EXTT1=
EXTT2=
EXTT3=
EXTT4=
EXTT5=
EXTT6=
EXTT7=
EXTT8=
EXTT9=
EXTT10=
EXTT11=
EXTT12=
PLAYORDER=
